<svg xmlns="http://www.w3.org/2000/svg" version="1.1" xmlns:xlink="http://www.w3.org/1999/xlink" xmlns:svgjs="http://svgjs.dev/svgjs" width="1000" height="1000" viewBox="0 0 1000 1000"><rect width="1000" height="1000" fill="#1f2937"></rect><g transform="matrix(0.7,0,0,0.7,149.84162479563474,240.86000000000007)"><svg xmlns="http://www.w3.org/2000/svg" version="1.1" xmlns:xlink="http://www.w3.org/1999/xlink" xmlns:svgjs="http://svgjs.com/svgjs" viewBox="0 0 333 247" data-background-color="#1f2937" preserveAspectRatio="xMidYMid meet" height="741" width="1000"><defs></defs><g id="tight-bounds" transform="matrix(1,0,0,1,0.07534134721947794,-0.09999999999999432)"><svg viewBox="0 0 332.84931730556104 247.2" height="247.2" width="332.84931730556104"><g><svg viewBox="0 0 395.52 293.74416264835907" height="247.2" width="332.84931730556104"><g transform="matrix(1,0,0,1,0,126.95262544504222)"><svg viewBox="0 0 395.52 166.79153720331686" height="166.79153720331686" width="395.52"><g><svg viewBox="0 0 395.52 166.79153720331686" height="166.79153720331686" width="395.52"><g><svg viewBox="0 0 395.52 109.97935042735043" height="109.97935042735043" width="395.52"><g transform="matrix(1,0,0,1,0,0)"><svg width="395.52" viewBox="4.64 -37.5 171.37 47.66" height="109.97935042735043" data-palette-color="#ffffff"><path d="M23.14-6.74L23.14-6.74Q23.14-5.81 22.74-5.05 22.34-4.3 21.61-3.71L21.61-3.71Q20.48-2.86 18.95-2.43 17.41-2 15.67-2L15.67-2Q14.36-2 12.98-2.26 11.6-2.51 10.45-3.15L10.45-3.15Q9.3-3.78 8.51-4.82 7.71-5.86 7.57-7.42L7.57-7.42 4.64-7.42Q4.71-5.62 5.58-4.15 6.45-2.69 7.96-1.66L7.96-1.66Q9.42-0.66 11.43-0.09 13.43 0.49 15.67 0.49L15.67 0.49Q17.75 0.49 19.75-0.02 21.75-0.54 23.27-1.61L23.27-1.61Q24.51-2.51 25.29-3.85 26.07-5.18 26.07-6.88L26.07-6.88Q26.07-8.69 25.26-9.97 24.44-11.25 23.07-12.16L23.07-12.16Q21.68-13.06 19.85-13.65 18.02-14.23 16.02-14.67L16.02-14.67Q14.45-14.99 13.02-15.39 11.6-15.8 10.57-16.41L10.57-16.41Q9.55-16.97 9.01-17.81 8.47-18.65 8.47-19.8L8.47-19.8Q8.47-20.95 9.08-21.81 9.69-22.68 10.67-23.24L10.67-23.24Q11.65-23.83 12.9-24.11 14.16-24.39 15.5-24.39L15.5-24.39Q16.92-24.39 18.25-24.02 19.58-23.66 20.63-22.97L20.63-22.97Q21.66-22.29 22.3-21.29 22.95-20.29 22.97-19.02L22.97-19.02 25.93-19.02Q25.85-20.9 25.01-22.36 24.17-23.83 22.78-24.85L22.78-24.85Q21.39-25.85 19.52-26.38 17.65-26.9 15.5-26.9L15.5-26.9Q13.6-26.9 11.8-26.42 10.01-25.93 8.67-25.05L8.67-25.05Q7.25-24.1 6.41-22.75 5.57-21.41 5.57-19.7L5.57-19.7Q5.57-17.9 6.41-16.64 7.25-15.38 8.62-14.58L8.62-14.58Q10.08-13.72 11.77-13.18 13.45-12.65 15.48-12.23L15.48-12.23Q17.09-11.89 18.58-11.4 20.07-10.91 21.12-10.23L21.12-10.23Q22.07-9.62 22.61-8.75 23.14-7.89 23.14-6.74ZM37.67-21.26L37.67-21.26 37.67-37.5 34.74-37.5 34.74 0 37.67 0 37.67-18.16Q38.08-19.41 38.85-20.51 39.62-21.61 40.65-22.41L40.65-22.41Q41.75-23.32 43.1-23.83 44.46-24.34 45.97-24.34L45.97-24.34Q47.7-24.37 48.98-23.84 50.27-23.32 51.12-22.31L51.12-22.31Q51.93-21.36 52.32-19.98 52.71-18.6 52.73-16.89L52.73-16.89 52.73 0 55.66 0 55.66-16.87Q55.64-19.26 55.05-21.13 54.47-23 53.34-24.29L53.34-24.29Q52.19-25.59 50.52-26.25 48.85-26.9 46.68-26.9L46.68-26.9Q45.02-26.9 43.55-26.42 42.09-25.93 40.89-25.05L40.89-25.05Q39.89-24.34 39.07-23.38 38.25-22.41 37.67-21.26ZM76 0.49L76 0.49Q79.29 0.49 81.78-0.81 84.27-2.1 85.79-4.2L85.79-4.2 83.93-5.62Q82.51-3.86 80.54-2.93 78.56-2 76.12-2L76.12-2Q73.99-2.03 72.26-2.86 70.53-3.69 69.28-5.13L69.28-5.13Q68.06-6.49 67.37-8.3 66.67-10.11 66.57-12.21L66.57-12.21 66.57-13.01 86.35-13.01 86.35-14.79Q86.35-17.31 85.63-19.52 84.91-21.73 83.54-23.39L83.54-23.39Q82.15-25.02 80.11-25.96 78.07-26.9 75.46-26.9L75.46-26.9Q72.97-26.9 70.83-25.88 68.7-24.85 67.11-23.05L67.11-23.05Q65.5-21.24 64.58-18.8 63.67-16.36 63.67-13.53L63.67-13.53 63.67-12.48Q63.67-9.81 64.57-7.46 65.47-5.1 67.11-3.32L67.11-3.32Q68.72-1.56 70.99-0.54 73.26 0.49 76 0.49ZM75.46-24.39L75.46-24.39Q77.34-24.39 78.8-23.67 80.27-22.95 81.29-21.75L81.29-21.75Q82.29-20.56 82.87-18.97 83.44-17.38 83.44-15.8L83.44-15.8 83.44-15.53 66.72-15.53Q66.96-17.43 67.7-19.06 68.43-20.68 69.58-21.88L69.58-21.88Q70.7-23.05 72.19-23.72 73.68-24.39 75.46-24.39ZM112.2-26.9L112.2-26.9Q108.61-26.93 105.96-25.42 103.31-23.9 101.77-21.19L101.77-21.19 101.75-22.36 101.58-26.42 98.8-26.42 98.8 0 101.82 0 101.77-16.92Q102.26-18.73 103.18-20.06 104.09-21.39 105.34-22.27L105.34-22.27Q106.63-23.17 108.26-23.6 109.88-24.02 111.74-24.02L111.74-24.02Q112.81-24.02 113.84-23.9 114.86-23.78 115.86-23.56L115.86-23.56 116.25-26.39Q115.5-26.64 114.38-26.77 113.27-26.9 112.2-26.9ZM124.82-26.42L124.82 10.16 127.72 10.16 127.72-3.2Q128.31-2.42 129.08-1.78 129.85-1.15 130.73-0.71L130.73-0.71Q131.83-0.12 133.08 0.18 134.34 0.49 135.71 0.49L135.71 0.49Q138.37 0.49 140.32-0.63 142.28-1.76 143.54-3.61L143.54-3.61Q144.79-5.47 145.44-7.91 146.08-10.35 146.08-12.94L146.08-12.94 146.08-13.45Q146.06-16.24 145.39-18.77 144.72-21.31 143.32-23.19L143.32-23.19Q142.01-24.93 140.11-25.92 138.22-26.9 135.63-26.9L135.63-26.9Q134.29-26.9 133.05-26.59 131.8-26.27 130.73-25.66L130.73-25.66Q129.82-25.15 129.03-24.41 128.24-23.68 127.65-22.78L127.65-22.78 127.53-26.42 124.82-26.42ZM143.15-13.45L143.15-13.45 143.15-12.94Q143.13-10.91 142.68-8.91 142.23-6.91 141.23-5.35L141.23-5.35Q140.25-3.88 138.72-2.95 137.2-2.03 135.02-2.03L135.02-2.03Q133.8-2.03 132.66-2.34 131.51-2.66 130.56-3.27L130.56-3.27Q129.63-3.83 128.91-4.65 128.19-5.47 127.72-6.49L127.72-6.49 127.72-19.38Q128.19-20.51 128.92-21.42 129.65-22.34 130.61-23L130.61-23Q131.51-23.63 132.62-23.99 133.73-24.34 134.98-24.34L134.98-24.34Q137.1-24.34 138.59-23.49 140.08-22.63 141.08-21.26L141.08-21.26Q142.15-19.65 142.65-17.6 143.15-15.55 143.15-13.45ZM172.89 0L172.89 0 176.01 0 176.01-0.32Q175.67-1.51 175.44-2.87 175.21-4.22 175.18-5.54L175.18-5.54 175.18-18.31Q175.16-20.46 174.38-22.07 173.6-23.68 172.23-24.78L172.23-24.78Q170.86-25.83 169.03-26.37 167.2-26.9 165.1-26.9L165.1-26.9Q163-26.9 161.16-26.32 159.31-25.73 157.92-24.71L157.92-24.71Q156.53-23.66 155.7-22.24 154.87-20.83 154.8-19.14L154.8-19.14 157.73-19.12Q157.78-20.36 158.39-21.35 159-22.34 160-23.02L160-23.02Q160.97-23.71 162.27-24.07 163.56-24.44 164.98-24.44L164.98-24.44Q166.52-24.44 167.85-24.04 169.18-23.63 170.15-22.88L170.15-22.88Q171.13-22.12 171.69-20.98 172.25-19.85 172.28-18.36L172.28-18.36 172.28-15.38 166.54-15.38Q164.07-15.38 161.83-14.93 159.58-14.48 157.9-13.48L157.9-13.48Q156.19-12.48 155.18-10.88 154.16-9.28 154.16-7.01L154.16-7.01Q154.16-5.32 154.85-3.93 155.53-2.54 156.7-1.59L156.7-1.59Q157.87-0.61 159.48-0.06 161.1 0.49 162.93 0.49L162.93 0.49Q164.39 0.49 165.75 0.18 167.1-0.12 168.32-0.71L168.32-0.71Q169.52-1.27 170.53-2.09 171.55-2.91 172.3-3.91L172.3-3.91Q172.35-2.88 172.49-1.88 172.62-0.88 172.89 0ZM163.27-2.12L163.27-2.12Q161.97-2.12 160.85-2.49 159.73-2.86 158.9-3.52L158.9-3.52Q158.04-4.17 157.57-5.14 157.09-6.1 157.09-7.28L157.09-7.28Q157.07-8.76 157.73-9.79 158.39-10.82 159.51-11.52L159.51-11.52Q160.88-12.4 162.83-12.74 164.78-13.09 166.96-13.11L166.96-13.11 172.28-13.11 172.28-7.32Q171.72-6.15 170.81-5.19 169.91-4.22 168.74-3.54L168.74-3.54Q167.57-2.86 166.17-2.49 164.78-2.12 163.27-2.12Z" opacity="1" transform="matrix(1,0,0,1,0,0)" fill="#ffffff" class="undefined-text-0" data-fill-palette-color="primary" id="text-0"></path></svg></g></svg></g><g transform="matrix(1,0,0,1,98.88,135.9428355588376)"><svg viewBox="0 0 197.76 30.84870164447924" height="30.84870164447924" width="197.76"><g transform="matrix(1,0,0,1,0,0)"><svg width="197.76" viewBox="-0.35 -37 319.21000000000004 49.8" height="30.84870164447924" data-palette-color="#ffffff"><path d="M14.05 0L-0.35-33 3.9-33 16.45-4.2 27.9-33 31.9-33 18.8 0 14.05 0ZM39.6-23L39.6 0 36.1 0 36.1-23 39.6-23ZM35.35-31.4L35.35-31.4Q35.35-32.4 36.07-33.2 36.8-34 37.85-34L37.85-34Q38.85-34 39.65-33.2 40.45-32.4 40.45-31.4L40.45-31.4Q40.45-30.35 39.65-29.63 38.85-28.9 37.85-28.9L37.85-28.9Q36.8-28.9 36.07-29.63 35.35-30.35 35.35-31.4ZM54.15-20.95L54.15-20.95Q51.75-20.95 50.67-20.08 49.6-19.2 49.6-17.7L49.6-17.7Q49.6-17.2 49.75-16.65 49.9-16.1 50.32-15.63 50.75-15.15 51.47-14.73 52.2-14.3 53.4-14.05L53.4-14.05 56.95-13.25Q59.05-12.8 60.32-12.03 61.6-11.25 62.3-10.35 63-9.45 63.22-8.53 63.45-7.6 63.45-6.8L63.45-6.8Q63.45-5.25 62.82-3.9 62.2-2.55 61.02-1.55 59.85-0.55 58.15 0.03 56.45 0.6 54.35 0.6L54.35 0.6Q51.7 0.6 49.45-0.18 47.2-0.95 45.85-1.9L45.85-1.9 46.75-5.15Q48.55-3.5 50.75-2.75 52.95-2 54.7-2L54.7-2Q57.2-2 58.5-3.23 59.8-4.45 59.8-5.8L59.8-5.8Q59.8-6.25 59.75-6.83 59.7-7.4 59.35-8 59-8.6 58.3-9.13 57.6-9.65 56.3-9.95L56.3-9.95 51.5-11.15Q49.85-11.55 48.8-12.2 47.75-12.85 47.15-13.63 46.55-14.4 46.3-15.28 46.05-16.15 46.05-17.05L46.05-17.05Q46.05-20.1 48.32-21.93 50.6-23.75 54.4-23.75L54.4-23.75Q56.35-23.75 58.6-23.23 60.85-22.7 62.4-21.7L62.4-21.7 61.45-18.7Q60.45-19.55 58.47-20.25 56.5-20.95 54.15-20.95ZM72.94-23L72.94 0 69.44 0 69.44-23 72.94-23ZM68.69-31.4L68.69-31.4Q68.69-32.4 69.42-33.2 70.14-34 71.19-34L71.19-34Q72.19-34 72.99-33.2 73.79-32.4 73.79-31.4L73.79-31.4Q73.79-30.35 72.99-29.63 72.19-28.9 71.19-28.9L71.19-28.9Q70.14-28.9 69.42-29.63 68.69-30.35 68.69-31.4ZM93.09 0.6L93.09 0.6Q89.89 0.6 87.59-0.83 85.29-2.25 84.09-4.1L84.09-4.1 83.89-4.1 83.49 0 80.74 0 80.74-37 84.24-37 84.24-18.7Q84.89-20.85 87.09-22.3 89.29-23.75 92.54-23.75L92.54-23.75Q95.19-23.75 97.19-22.75 99.19-21.75 100.52-20.08 101.84-18.4 102.52-16.15 103.19-13.9 103.19-11.45L103.19-11.45Q103.19-9.05 102.56-6.88 101.94-4.7 100.69-3.05 99.44-1.4 97.54-0.4 95.64 0.6 93.09 0.6ZM92.69-2.35L92.69-2.35Q94.59-2.35 95.89-3.15 97.19-3.95 97.99-5.23 98.79-6.5 99.14-8.1 99.49-9.7 99.49-11.3L99.49-11.3Q99.49-13.4 98.97-15.15 98.44-16.9 97.49-18.15 96.54-19.4 95.14-20.1 93.74-20.8 92.04-20.8L92.04-20.8Q89.39-20.8 87.27-19.2 85.14-17.6 84.24-14.75L84.24-14.75 84.24-7.4Q85.69-5 87.99-3.68 90.29-2.35 92.69-2.35ZM112.99-23L112.99 0 109.49 0 109.49-23 112.99-23ZM108.74-31.4L108.74-31.4Q108.74-32.4 109.46-33.2 110.19-34 111.24-34L111.24-34Q112.24-34 113.04-33.2 113.84-32.4 113.84-31.4L113.84-31.4Q113.84-30.35 113.04-29.63 112.24-28.9 111.24-28.9L111.24-28.9Q110.19-28.9 109.46-29.63 108.74-30.35 108.74-31.4ZM124.59-37L124.59 0 121.09 0 121.09-37 124.59-37ZM136.18-23L136.18 0 132.68 0 132.68-23 136.18-23ZM131.93-31.4L131.93-31.4Q131.93-32.4 132.66-33.2 133.38-34 134.43-34L134.43-34Q135.43-34 136.23-33.2 137.03-32.4 137.03-31.4L137.03-31.4Q137.03-30.35 136.23-29.63 135.43-28.9 134.43-28.9L134.43-28.9Q133.38-28.9 132.66-29.63 131.93-30.35 131.93-31.4ZM145.03-4.6L145.03-20.65 141.18-20.65 141.18-22.5 145.13-23 145.88-29.95 148.53-29.95 148.53-23 153.93-23 153.93-20.65 148.53-20.65 148.53-4.7Q148.53-3.1 149.01-2.6 149.48-2.1 150.48-2.1L150.48-2.1Q151.63-2.1 152.53-2.45 153.43-2.8 154.13-3.3L154.13-3.3 154.83-0.65Q153.98-0.25 152.61 0.15 151.23 0.55 149.58 0.55L149.58 0.55Q147.98 0.55 147.08 0.1 146.18-0.35 145.73-1.1 145.28-1.85 145.16-2.78 145.03-3.7 145.03-4.6L145.03-4.6ZM181.08-23L170.53 0.2Q169.78 1.8 168.73 3.98 167.68 6.15 166.23 8.1 164.78 10.05 162.83 11.43 160.88 12.8 158.43 12.8L158.43 12.8Q158.03 12.8 157.83 12.78 157.63 12.75 157.38 12.65L157.38 12.65 156.73 9.35Q156.88 9.4 157.08 9.45 157.28 9.5 157.78 9.5L157.78 9.5Q158.78 9.5 159.65 9.3 160.53 9.1 161.38 8.5L161.38 8.5Q163.13 7.25 164.55 4.85 165.98 2.45 167.13-0.75L167.13-0.75 155.63-23 159.78-23 168.93-3.85 177.13-23 181.08-23ZM200.12-23L200.12 0 196.62 0 196.62-23 200.12-23ZM195.87-31.4L195.87-31.4Q195.87-32.4 196.6-33.2 197.32-34 198.37-34L198.37-34Q199.37-34 200.17-33.2 200.97-32.4 200.97-31.4L200.97-31.4Q200.97-30.35 200.17-29.63 199.37-28.9 198.37-28.9L198.37-28.9Q197.32-28.9 196.6-29.63 195.87-30.35 195.87-31.4ZM214.67-20.95L214.67-20.95Q212.27-20.95 211.2-20.08 210.12-19.2 210.12-17.7L210.12-17.7Q210.12-17.2 210.27-16.65 210.42-16.1 210.85-15.63 211.27-15.15 212-14.73 212.72-14.3 213.92-14.05L213.92-14.05 217.47-13.25Q219.57-12.8 220.85-12.03 222.12-11.25 222.82-10.35 223.52-9.45 223.75-8.53 223.97-7.6 223.97-6.8L223.97-6.8Q223.97-5.25 223.35-3.9 222.72-2.55 221.55-1.55 220.37-0.55 218.67 0.03 216.97 0.6 214.87 0.6L214.87 0.6Q212.22 0.6 209.97-0.18 207.72-0.95 206.37-1.9L206.37-1.9 207.27-5.15Q209.07-3.5 211.27-2.75 213.47-2 215.22-2L215.22-2Q217.72-2 219.02-3.23 220.32-4.45 220.32-5.8L220.32-5.8Q220.32-6.25 220.27-6.83 220.22-7.4 219.87-8 219.52-8.6 218.82-9.13 218.12-9.65 216.82-9.95L216.82-9.95 212.02-11.15Q210.37-11.55 209.32-12.2 208.27-12.85 207.67-13.63 207.07-14.4 206.82-15.28 206.57-16.15 206.57-17.05L206.57-17.05Q206.57-20.1 208.85-21.93 211.12-23.75 214.92-23.75L214.92-23.75Q216.87-23.75 219.12-23.23 221.37-22.7 222.92-21.7L222.92-21.7 221.97-18.7Q220.97-19.55 219-20.25 217.02-20.95 214.67-20.95ZM259.82-23L251.62-14.9 261.42 0 257.42 0 249.17-12.5 245.72-9.05 245.72 0 242.22 0 242.22-37 245.72-37 245.72-13.3 255.82-23 259.82-23ZM275.36-23.75L275.36-23.75Q279.76-23.75 282.16-21.53 284.56-19.3 284.56-15.25L284.56-15.25Q284.56-14.4 284.46-13.53 284.36-12.65 284.11-12.25L284.11-12.25 267.26-12.25 267.26-11.75Q267.26-9.85 267.76-8.1 268.26-6.35 269.26-5 270.26-3.65 271.79-2.85 273.31-2.05 275.41-2.05L275.41-2.05Q276.61-2.05 277.76-2.33 278.91-2.6 279.96-3.03 281.01-3.45 281.91-3.95 282.81-4.45 283.51-4.95L283.51-4.95 284.11-2.1Q283.46-1.7 282.51-1.23 281.56-0.75 280.41-0.35 279.26 0.05 277.89 0.33 276.51 0.6 275.01 0.6L275.01 0.6Q272.21 0.6 270.06-0.38 267.91-1.35 266.46-3.03 265.01-4.7 264.26-6.9 263.51-9.1 263.51-11.5L263.51-11.5Q263.51-13.95 264.29-16.18 265.06-18.4 266.56-20.1 268.06-21.8 270.29-22.78 272.51-23.75 275.36-23.75ZM275.21-20.95L275.21-20.95Q271.91-20.95 270.09-19.23 268.26-17.5 267.61-14.9L267.61-14.9 281.26-14.9Q281.31-15.15 281.31-15.35 281.31-15.55 281.31-15.8L281.31-15.8Q281.31-17.05 280.81-18.03 280.31-19 279.46-19.65 278.61-20.3 277.51-20.63 276.41-20.95 275.21-20.95ZM312.11-23L301.56 0.2Q300.81 1.8 299.76 3.98 298.71 6.15 297.26 8.1 295.81 10.05 293.86 11.43 291.91 12.8 289.46 12.8L289.46 12.8Q289.06 12.8 288.86 12.78 288.66 12.75 288.41 12.65L288.41 12.65 287.76 9.35Q287.91 9.4 288.11 9.45 288.31 9.5 288.81 9.5L288.81 9.5Q289.81 9.5 290.69 9.3 291.56 9.1 292.41 8.5L292.41 8.5Q294.16 7.25 295.59 4.85 297.01 2.45 298.16-0.75L298.16-0.75 286.66-23 290.81-23 299.96-3.85 308.16-23 312.11-23ZM314.16-1.75L314.16-1.75Q314.16-2.7 314.81-3.43 315.46-4.15 316.46-4.15L316.46-4.15Q317.41-4.15 318.13-3.43 318.86-2.7 318.86-1.75L318.86-1.75Q318.86-0.8 318.13-0.13 317.41 0.55 316.46 0.55L316.46 0.55Q315.46 0.55 314.81-0.13 314.16-0.8 314.16-1.75Z" opacity="1" transform="matrix(1,0,0,1,0,0)" fill="#ffffff" class="undefined-text-1" data-fill-palette-color="secondary" id="text-1"></path></svg></g></svg></g></svg></g></svg></g><g transform="matrix(1,0,0,1,75.54432000000001,0)"><svg viewBox="0 0 244.43135999999996 100.98914031355504" height="100.98914031355504" width="244.43135999999996"><g><svg xmlns="http://www.w3.org/2000/svg" xmlns:xlink="http://www.w3.org/1999/xlink" version="1.1" x="0" y="0" viewBox="0.698 26.041000000000004 89.745 37.07899999999999" enable-background="new 0 0 90 90" xml:space="preserve" width="244.43135999999996" height="100.98914031355504" class="icon-icon-0" data-fill-palette-color="accent" id="icon-0"><path d="M86.114 58.471l-4.367-4.614-4.395-4.585-4.418-4.562c-2.94-3.047-5.923-6.051-8.884-9.077l-8.95-9.011-0.577-0.581-0.577 0.581-8.948 9.012c-0.799 0.816-1.6 1.63-2.401 2.444l-9.907-9.352-0.3-0.283-0.278 0.283L0.698 60.718l31.691-31.119 9.084 9.623c-1.793 1.823-3.584 3.649-5.36 5.489l-4.418 4.562-4.396 4.585-4.367 4.613c-1.452 1.541-2.895 3.092-4.331 4.649 1.557-1.436 3.108-2.879 4.649-4.331l4.613-4.367 4.585-4.396 4.562-4.418c3.047-2.94 6.052-5.922 9.077-8.884l8.435-8.376 8.434 8.377c3.026 2.961 6.029 5.944 9.076 8.884l4.562 4.418 4.585 4.395 4.614 4.367c1.542 1.452 3.092 2.894 4.65 4.33C89.008 61.564 87.566 60.013 86.114 58.471z" fill="#ffffff" data-fill-palette-color="accent"></path></svg></g></svg></g><g></g></svg></g></svg><rect width="332.84931730556104" height="247.2" fill="none" stroke="none" visibility="hidden"></rect></g></svg></g></svg>