<svg xmlns="http://www.w3.org/2000/svg" version="1.1" xmlns:xlink="http://www.w3.org/1999/xlink" xmlns:svgjs="http://svgjs.dev/svgjs" width="1000" height="1000" viewBox="0 0 1000 1000"><rect width="1000" height="1000" fill="#1f2937"></rect><g transform="matrix(0.7,0,0,0.7,149.57608091520126,407.1038163306746)"><svg xmlns="http://www.w3.org/2000/svg" version="1.1" xmlns:xlink="http://www.w3.org/1999/xlink" xmlns:svgjs="http://svgjs.com/svgjs" viewBox="0 0 396 105" data-background-color="#1f2937" preserveAspectRatio="xMidYMid meet" height="265" width="1000"><defs></defs><g id="tight-bounds" transform="matrix(1,0,0,1,0.24018291774251566,0.08355609735642133)"><svg viewBox="0 0 395.52 104.8336984294405" height="104.8336984294405" width="395.52"><g><svg viewBox="0 0 395.52000000000004 104.83369842944052" height="104.8336984294405" width="395.52"><g><svg viewBox="0 0 395.52000000000004 104.83369842944052" height="104.83369842944052" width="395.52000000000004"><g><svg viewBox="0 0 395.52000000000004 104.83369842944052" height="104.83369842944052" width="395.52000000000004"><g><svg viewBox="0 0 395.52000000000004 104.83369842944052" height="104.83369842944052" width="395.52000000000004"><g transform="matrix(1,0,0,1,0,0)"><svg width="395.52000000000004" viewBox="0.3265849131716606 -30.953670000000002 161.01372508682832 42.67714" height="104.83369842944052" data-palette-color="#ffffff"><path d="M16.376-23.473v0l0.903 4.061c-2.229-0.843-4.701-0.963-7.415-0.359v0c-1.946 0.433-3.39 1.232-4.333 2.397-0.949 1.167-1.261 2.483-0.936 3.947v0c0.171 0.768 0.476 1.42 0.917 1.958 0.434 0.539 1.093 0.986 1.979 1.343 0.885 0.356 1.627 0.608 2.227 0.754 0.601 0.153 1.534 0.359 2.8 0.617v0c1.186 0.235 2.099 0.425 2.739 0.569 0.632 0.139 1.469 0.404 2.512 0.794 1.036 0.391 1.848 0.815 2.434 1.272 0.585 0.45 1.164 1.09 1.738 1.919 0.567 0.83 0.968 1.772 1.202 2.826v0c0.631 2.837 0.146 5.247-1.456 7.228-1.603 1.975-3.934 3.303-6.992 3.983v0c-3.384 0.752-6.409 0.708-9.075-0.134v0l-0.927-4.168c2.72 1.239 5.756 1.486 9.108 0.741v0c2.011-0.447 3.489-1.247 4.435-2.4 0.954-1.148 1.242-2.568 0.866-4.259v0c-0.155-0.696-0.431-1.294-0.829-1.793-0.398-0.499-0.957-0.911-1.678-1.235-0.727-0.323-1.405-0.575-2.033-0.757-0.626-0.175-1.468-0.381-2.524-0.617v0c-0.21-0.056-0.525-0.119-0.943-0.19v0c-1.508-0.3-2.662-0.562-3.464-0.787-0.801-0.225-1.773-0.603-2.916-1.134-1.136-0.533-2.039-1.244-2.707-2.133-0.662-0.891-1.139-1.99-1.43-3.298v0c-0.611-2.746-0.109-5.112 1.506-7.096 1.616-1.978 3.908-3.297 6.875-3.957v0c2.779-0.618 5.251-0.649 7.417-0.092zM47.842-14.598l-1.97-14.376 3.933-0.539 4.485 32.735-3.933 0.538-2.03-14.811-15.871 2.174 2.029 14.812-3.943 0.54-4.485-32.734 3.943-0.54 1.97 14.375zM64.002-11.965l0.573 11.255 14.441-0.735 0.177 3.476-18.416 0.937-1.679-32.998 18.167-0.924 0.176 3.476-14.191 0.722 0.575 11.305 12.524-0.637 0.177 3.486zM93.674-27.117l-4.548-0.125-0.36 13.186 4.998 0.136c2.252 0.061 3.992-0.505 5.219-1.698 1.226-1.194 1.866-2.753 1.918-4.68v0c0.12-4.412-2.288-6.685-7.227-6.819zM97.998-11.063l8.304 13.911-4.759-0.13-7.731-13.255-0.39-0.011-4.748-0.13-0.356 13.035-3.978-0.108 0.901-33.028 8.287 0.226c3.819 0.104 6.693 1.083 8.623 2.937 1.93 1.847 2.852 4.356 2.766 7.528v0c-0.129 2.284-0.788 4.21-1.979 5.778-1.183 1.568-2.83 2.65-4.94 3.247zM117.271-25.669l-1.488 14.041 5.061 0.537c2.473 0.262 4.477-0.176 6.012-1.314 1.528-1.132 2.397-2.689 2.607-4.671v0c0.235-2.214-0.292-4.047-1.579-5.497-1.294-1.451-3.257-2.316-5.889-2.595v0zM110.187 3.406l3.482-32.856 8.632 0.915c3.805 0.403 6.698 1.705 8.677 3.907 1.986 2.195 2.814 4.854 2.483 7.976v0c-0.31 2.924-1.655 5.238-4.035 6.943-2.379 1.699-5.358 2.358-8.938 1.979v0l-5.062-0.537-1.281 12.093zM145.057-5.696l-0.99 1.7 11.487 2.278-0.247-1.996-1.963-16.579c-0.659 1.303-3.422 6.169-8.287 14.597zM161.34 11.723l-4.188-0.83-1.147-9.076-13.703-2.717-4.572 7.943-4.179-0.829 17.725-30.169 5.386 1.068z" opacity="1" transform="matrix(1,0,0,1,0,0)" fill="#ffffff" class="undefined-text-0" data-fill-palette-color="primary" id="text-0"></path></svg></g></svg></g></svg></g></svg></g><g></g></svg></g></svg><rect width="395.52" height="104.8336984294405" fill="none" stroke="none" visibility="hidden"></rect></g></svg></g></svg>