<svg xmlns="http://www.w3.org/2000/svg" version="1.1" xmlns:xlink="http://www.w3.org/1999/xlink" xmlns:svgjs="http://svgjs.dev/svgjs" width="1000" height="1000" viewBox="0 0 1000 1000"><rect width="1000" height="1000" fill="#000000"></rect><g transform="matrix(0.7,0,0,0.7,149.57575768075043,439.48331869536105)"><svg viewBox="0 0 396 69" data-background-color="#1f2937" preserveAspectRatio="xMidYMid meet" height="174" width="1000" xmlns="http://www.w3.org/2000/svg" xmlns:xlink="http://www.w3.org/1999/xlink"><defs></defs><g id="tight-bounds" transform="matrix(1,0,0,1,0.24000005939603852,-0.21715098505671904)"><svg viewBox="0 0 395.52 69.43430197011347" height="69.43430197011347" width="395.52"><g><svg viewBox="0 0 665.9148451314871 116.90264068376068" height="69.43430197011347" width="395.52"><g transform="matrix(1,0,0,1,270.39484513148716,0)"><svg viewBox="0 0 395.52 116.90264068376068" height="116.90264068376068" width="395.52"><g><svg viewBox="0 0 395.52 116.90264068376068" height="116.90264068376068" width="395.52"><g><svg viewBox="0 0 395.52 116.90264068376068" height="116.90264068376068" width="395.52"><g transform="matrix(1,0,0,1,0,0)"><svg width="395.52" viewBox="4.640002250671387 -37.5 171.38999938964844 47.660003662109375" height="116.90264068376068" data-palette-color="#ffffff"><svg></svg><g class="undefined-text-0" data-fill-palette-color="primary" id="text-0"><path d="M23.14-6.74v0c0 0.62-0.133 1.183-0.4 1.69-0.267 0.5-0.643 0.947-1.13 1.34v0c-0.753 0.567-1.64 0.993-2.66 1.28-1.027 0.287-2.12 0.43-3.28 0.43v0c-0.873 0-1.77-0.087-2.69-0.26-0.92-0.167-1.763-0.463-2.53-0.89v0c-0.767-0.42-1.413-0.977-1.94-1.67-0.533-0.693-0.847-1.56-0.94-2.6v0h-2.93c0.047 1.2 0.36 2.29 0.94 3.27 0.58 0.973 1.373 1.803 2.38 2.49v0c0.973 0.667 2.13 1.19 3.47 1.57 1.333 0.387 2.747 0.58 4.24 0.58v0c1.387 0 2.747-0.17 4.08-0.51 1.333-0.347 2.507-0.877 3.52-1.59v0c0.827-0.6 1.5-1.347 2.02-2.24 0.52-0.887 0.78-1.897 0.78-3.03v0c0-1.207-0.27-2.237-0.81-3.09-0.547-0.853-1.277-1.583-2.19-2.19v0c-0.927-0.6-2-1.097-3.22-1.49-1.22-0.387-2.497-0.727-3.83-1.02v0c-1.047-0.213-2.047-0.453-3-0.72-0.947-0.273-1.763-0.613-2.45-1.02v0c-0.68-0.373-1.2-0.84-1.56-1.4-0.36-0.56-0.54-1.223-0.54-1.99v0c0-0.767 0.203-1.437 0.61-2.01 0.407-0.58 0.937-1.057 1.59-1.43v0c0.653-0.393 1.397-0.683 2.23-0.87 0.84-0.187 1.707-0.28 2.6-0.28v0c0.947 0 1.863 0.123 2.75 0.37 0.887 0.24 1.68 0.59 2.38 1.05v0c0.687 0.453 1.243 1.013 1.67 1.68 0.433 0.667 0.657 1.423 0.67 2.27v0h2.96c-0.053-1.253-0.36-2.367-0.92-3.34-0.56-0.98-1.303-1.81-2.23-2.49v0c-0.927-0.667-2.013-1.177-3.26-1.53-1.247-0.347-2.587-0.52-4.02-0.52v0c-1.267 0-2.5 0.16-3.7 0.48-1.193 0.327-2.237 0.783-3.13 1.37v0c-0.947 0.633-1.7 1.4-2.26 2.3-0.56 0.893-0.84 1.91-0.84 3.05v0c0 1.2 0.28 2.22 0.84 3.06 0.56 0.84 1.297 1.527 2.21 2.06v0c0.973 0.573 2.023 1.04 3.15 1.4 1.12 0.353 2.357 0.67 3.71 0.95v0c1.073 0.227 2.107 0.503 3.1 0.83 0.993 0.327 1.84 0.717 2.54 1.17v0c0.633 0.407 1.13 0.9 1.49 1.48 0.353 0.573 0.53 1.243 0.53 2.01zM37.67-21.26v0-16.24h-2.93v37.5h2.93v-18.16c0.28-0.833 0.673-1.617 1.18-2.35 0.513-0.733 1.113-1.367 1.8-1.9v0c0.733-0.607 1.55-1.08 2.45-1.42 0.907-0.34 1.863-0.51 2.87-0.51v0c1.16-0.02 2.167 0.147 3.02 0.5 0.853 0.347 1.563 0.857 2.13 1.53v0c0.54 0.633 0.94 1.41 1.2 2.33 0.26 0.92 0.397 1.95 0.41 3.09v0 16.89h2.93v-16.87c-0.013-1.593-0.217-3.013-0.61-4.26-0.387-1.247-0.957-2.3-1.71-3.16v0c-0.76-0.867-1.7-1.52-2.82-1.96-1.113-0.433-2.393-0.65-3.84-0.65v0c-1.107 0-2.15 0.16-3.13 0.48-0.973 0.327-1.86 0.783-2.66 1.37v0c-0.667 0.473-1.273 1.03-1.82 1.67-0.54 0.647-1.007 1.353-1.4 2.12zM76 0.49v0c2.2 0 4.13-0.433 5.79-1.3 1.66-0.86 2.993-1.99 4-3.39v0l-1.85-1.42c-0.947 1.173-2.08 2.07-3.4 2.69-1.32 0.62-2.793 0.93-4.42 0.93v0c-1.413-0.02-2.697-0.307-3.85-0.86-1.16-0.553-2.153-1.31-2.98-2.27v0c-0.813-0.907-1.453-1.963-1.92-3.17-0.467-1.207-0.73-2.51-0.79-3.91v0-0.8h19.77v-1.78c0-1.68-0.24-3.257-0.72-4.73-0.48-1.473-1.177-2.763-2.09-3.87v0c-0.927-1.087-2.07-1.943-3.43-2.57-1.353-0.627-2.903-0.94-4.65-0.94v0c-1.66 0-3.2 0.34-4.62 1.02-1.427 0.687-2.67 1.63-3.73 2.83v0c-1.073 1.207-1.913 2.623-2.52 4.25-0.613 1.627-0.92 3.383-0.92 5.27v0 1.05c0 1.78 0.303 3.453 0.91 5.02 0.6 1.573 1.443 2.953 2.53 4.14v0c1.08 1.173 2.377 2.1 3.89 2.78 1.513 0.687 3.18 1.03 5 1.03zM75.46-24.39v0c1.253 0 2.37 0.24 3.35 0.72 0.973 0.48 1.803 1.12 2.49 1.92v0c0.667 0.793 1.19 1.72 1.57 2.78 0.387 1.06 0.58 2.117 0.58 3.17v0 0.27h-16.73c0.167-1.267 0.493-2.443 0.98-3.53 0.487-1.08 1.113-2.02 1.88-2.82v0c0.747-0.78 1.617-1.393 2.61-1.84 0.993-0.447 2.083-0.67 3.27-0.67zM112.21-26.9v0c-2.393-0.02-4.473 0.473-6.24 1.48-1.767 1.013-3.163 2.423-4.19 4.23v0l-0.02-1.17-0.17-4.06h-2.79v26.42h3.03l-0.05-16.92c0.327-1.207 0.797-2.253 1.41-3.14 0.607-0.887 1.327-1.623 2.16-2.21v0c0.86-0.6 1.83-1.043 2.91-1.33 1.087-0.28 2.247-0.42 3.48-0.42v0c0.72 0 1.42 0.04 2.1 0.12 0.687 0.08 1.363 0.193 2.03 0.34v0l0.39-2.83c-0.507-0.167-1.13-0.293-1.87-0.38-0.74-0.087-1.467-0.13-2.18-0.13zM124.83-26.42v36.58h2.9v-13.36c0.393 0.52 0.847 0.993 1.36 1.42 0.513 0.42 1.063 0.777 1.65 1.07v0c0.733 0.393 1.517 0.69 2.35 0.89 0.84 0.207 1.717 0.31 2.63 0.31v0c1.773 0 3.31-0.373 4.61-1.12 1.307-0.753 2.38-1.747 3.22-2.98v0c0.833-1.24 1.467-2.673 1.9-4.3 0.427-1.627 0.64-3.303 0.64-5.03v0-0.51c-0.013-1.86-0.243-3.633-0.69-5.32-0.447-1.693-1.137-3.167-2.07-4.42v0c-0.873-1.16-1.943-2.07-3.21-2.73-1.26-0.653-2.753-0.98-4.48-0.98v0c-0.893 0-1.753 0.103-2.58 0.31-0.833 0.213-1.607 0.523-2.32 0.93v0c-0.607 0.34-1.173 0.757-1.7 1.25-0.527 0.487-0.987 1.03-1.38 1.63v0l-0.12-3.64zM143.16-13.45v0 0.51c-0.013 1.353-0.17 2.697-0.47 4.03-0.3 1.333-0.783 2.52-1.45 3.56v0c-0.653 0.98-1.49 1.78-2.51 2.4-1.013 0.613-2.247 0.92-3.7 0.92v0c-0.813 0-1.6-0.103-2.36-0.31-0.767-0.213-1.467-0.523-2.1-0.93v0c-0.62-0.373-1.17-0.833-1.65-1.38-0.48-0.547-0.877-1.16-1.19-1.84v0-12.89c0.313-0.753 0.713-1.433 1.2-2.04 0.487-0.613 1.05-1.14 1.69-1.58v0c0.6-0.42 1.27-0.75 2.01-0.99 0.74-0.233 1.527-0.35 2.36-0.35v0c1.413 0 2.617 0.283 3.61 0.85 0.993 0.573 1.823 1.317 2.49 2.23v0c0.713 1.073 1.237 2.293 1.57 3.66 0.333 1.367 0.5 2.75 0.5 4.15zM172.9 0v0h3.13v-0.32c-0.233-0.793-0.427-1.643-0.58-2.55-0.153-0.9-0.237-1.79-0.25-2.67v0-12.77c-0.02-1.433-0.29-2.687-0.81-3.76-0.52-1.073-1.237-1.977-2.15-2.71v0c-0.913-0.7-1.98-1.23-3.2-1.59-1.22-0.353-2.53-0.53-3.93-0.53v0c-1.4 0-2.713 0.193-3.94 0.58-1.227 0.393-2.307 0.93-3.24 1.61v0c-0.927 0.7-1.667 1.523-2.22 2.47-0.553 0.94-0.853 1.973-0.9 3.1v0l2.93 0.02c0.033-0.827 0.253-1.57 0.66-2.23 0.407-0.66 0.943-1.217 1.61-1.67v0c0.653-0.46 1.41-0.81 2.27-1.05 0.86-0.247 1.763-0.37 2.71-0.37v0c1.027 0 1.983 0.133 2.87 0.4 0.887 0.273 1.657 0.66 2.31 1.16v0c0.647 0.507 1.157 1.14 1.53 1.9 0.38 0.753 0.577 1.627 0.59 2.62v0 2.98h-5.74c-1.64 0-3.21 0.15-4.71 0.45-1.5 0.3-2.81 0.783-3.93 1.45v0c-1.14 0.667-2.047 1.533-2.72 2.6-0.68 1.067-1.02 2.357-1.02 3.87v0c0 1.127 0.23 2.153 0.69 3.08 0.453 0.927 1.07 1.707 1.85 2.34v0c0.787 0.653 1.717 1.163 2.79 1.53 1.073 0.367 2.22 0.55 3.44 0.55v0c0.973 0 1.913-0.103 2.82-0.31 0.9-0.2 1.757-0.497 2.57-0.89v0c0.8-0.373 1.537-0.833 2.21-1.38 0.68-0.547 1.27-1.153 1.77-1.82v0c0.033 0.687 0.097 1.363 0.19 2.03 0.087 0.667 0.22 1.293 0.4 1.88zM163.28-2.12v0c-0.86 0-1.667-0.123-2.42-0.37-0.747-0.247-1.397-0.59-1.95-1.03v0c-0.567-0.433-1.01-0.973-1.33-1.62-0.32-0.64-0.48-1.353-0.48-2.14v0c-0.013-0.987 0.2-1.823 0.64-2.51 0.44-0.687 1.033-1.263 1.78-1.73v0c0.913-0.587 2.02-0.993 3.32-1.22 1.3-0.233 2.677-0.357 4.13-0.37v0h5.32v5.79c-0.373 0.78-0.86 1.49-1.46 2.13-0.607 0.647-1.3 1.197-2.08 1.65v0c-0.78 0.453-1.633 0.803-2.56 1.05-0.933 0.247-1.903 0.37-2.91 0.37z" data-fill-palette-color="primary" fill="#ffffff" opacity="1"></path></g></svg></g></svg></g></svg></g></svg></g><g transform="matrix(1,0,0,1,0,7.956759780883274)"><svg viewBox="0 0 244.43135999999998 100.98912112199413" height="100.98912112199413" width="244.43135999999998"><g><svg xmlns="http://www.w3.org/2000/svg" xmlns:xlink="http://www.w3.org/1999/xlink" version="1.1" x="0" y="0" viewBox="0.6980000734329224 26.041004180908203 89.7449951171875 37.0789909362793" enable-background="new 0 0 90 90" xml:space="preserve" width="244.43135999999998" height="100.98912112199413" class="icon-icon-0" data-fill-palette-color="accent" id="icon-0"><path d="M86.114 58.471l-4.367-4.614-4.395-4.585-4.418-4.562c-2.94-3.047-5.923-6.051-8.884-9.077l-8.95-9.011-0.577-0.581-0.577 0.581-8.948 9.012c-0.799 0.816-1.6 1.63-2.401 2.444l-9.907-9.352-0.3-0.283-0.278 0.283L0.698 60.718l31.691-31.119 9.084 9.623c-1.793 1.823-3.584 3.649-5.36 5.489l-4.418 4.562-4.396 4.585-4.367 4.613c-1.452 1.541-2.895 3.092-4.331 4.649 1.557-1.436 3.108-2.879 4.649-4.331l4.613-4.367 4.585-4.396 4.562-4.418c3.047-2.94 6.052-5.922 9.077-8.884l8.435-8.376 8.434 8.377c3.026 2.961 6.029 5.944 9.076 8.884l4.562 4.418 4.585 4.395 4.614 4.367c1.542 1.452 3.092 2.894 4.65 4.33C89.008 61.564 87.566 60.013 86.114 58.471z" fill="#ffffff" data-fill-palette-color="accent"></path></svg></g></svg></g></svg></g></svg><rect width="395.52" height="69.43430197011347" fill="none" stroke="none" visibility="hidden"></rect></g></svg></g></svg>