<svg xmlns="http://www.w3.org/2000/svg" version="1.1" xmlns:xlink="http://www.w3.org/1999/xlink" xmlns:svgjs="http://svgjs.dev/svgjs" width="1000" height="1000" viewBox="0 0 1000 1000"><rect width="1000" height="1000" fill="#000000"></rect><g transform="matrix(0.7,0,0,0.7,149.5757678085073,403.03180052789634)"><svg viewBox="0 0 396 110" data-background-color="#1f2937" preserveAspectRatio="xMidYMid meet" height="277" width="1000" xmlns="http://www.w3.org/2000/svg" xmlns:xlink="http://www.w3.org/1999/xlink"><defs></defs><g id="tight-bounds" transform="matrix(1,0,0,1,0.2399942111873088,0.010324610270259882)"><svg viewBox="0 0 395.52 109.97935042735043" height="109.97935042735043" width="395.52"><g><svg viewBox="0 0 395.52 109.97935042735043" height="109.97935042735043" width="395.52"><g><svg viewBox="0 0 395.52 109.97935042735043" height="109.97935042735043" width="395.52"><g><svg viewBox="0 0 395.52 109.97935042735043" height="109.97935042735043" width="395.52"><g><svg viewBox="0 0 395.52 109.97935042735043" height="109.97935042735043" width="395.52"><g transform="matrix(1,0,0,1,0,0)"><svg width="395.52" viewBox="4.639999866485596 -37.5 171.3699951171875 47.65999984741211" height="109.97935042735043" data-palette-color="#ffffff"><g class="undefined-text-0" data-fill-palette-color="primary" id="text-0"><path d="M23.14-6.74L23.14-6.74Q23.14-5.81 22.74-5.05 22.34-4.3 21.61-3.71L21.61-3.71Q20.48-2.86 18.95-2.43 17.41-2 15.67-2L15.67-2Q14.36-2 12.98-2.26 11.6-2.51 10.45-3.15L10.45-3.15Q9.3-3.78 8.51-4.82 7.71-5.86 7.57-7.42L7.57-7.42 4.64-7.42Q4.71-5.62 5.58-4.15 6.45-2.69 7.96-1.66L7.96-1.66Q9.42-0.66 11.43-0.09 13.43 0.49 15.67 0.49L15.67 0.49Q17.75 0.49 19.75-0.02 21.75-0.54 23.27-1.61L23.27-1.61Q24.51-2.51 25.29-3.85 26.07-5.18 26.07-6.88L26.07-6.88Q26.07-8.69 25.26-9.97 24.44-11.25 23.07-12.16L23.07-12.16Q21.68-13.06 19.85-13.65 18.02-14.23 16.02-14.67L16.02-14.67Q14.45-14.99 13.02-15.39 11.6-15.8 10.57-16.41L10.57-16.41Q9.55-16.97 9.01-17.81 8.47-18.65 8.47-19.8L8.47-19.8Q8.47-20.95 9.08-21.81 9.69-22.68 10.67-23.24L10.67-23.24Q11.65-23.83 12.9-24.11 14.16-24.39 15.5-24.39L15.5-24.39Q16.92-24.39 18.25-24.02 19.58-23.66 20.63-22.97L20.63-22.97Q21.66-22.29 22.3-21.29 22.95-20.29 22.97-19.02L22.97-19.02 25.93-19.02Q25.85-20.9 25.01-22.36 24.17-23.83 22.78-24.85L22.78-24.85Q21.39-25.85 19.52-26.38 17.65-26.9 15.5-26.9L15.5-26.9Q13.6-26.9 11.8-26.42 10.01-25.93 8.67-25.05L8.67-25.05Q7.25-24.1 6.41-22.75 5.57-21.41 5.57-19.7L5.57-19.7Q5.57-17.9 6.41-16.64 7.25-15.38 8.62-14.58L8.62-14.58Q10.08-13.72 11.77-13.18 13.45-12.65 15.48-12.23L15.48-12.23Q17.09-11.89 18.58-11.4 20.07-10.91 21.12-10.23L21.12-10.23Q22.07-9.62 22.61-8.75 23.14-7.89 23.14-6.74ZM37.67-21.26L37.67-21.26 37.67-37.5 34.74-37.5 34.74 0 37.67 0 37.67-18.16Q38.08-19.41 38.85-20.51 39.62-21.61 40.65-22.41L40.65-22.41Q41.75-23.32 43.1-23.83 44.46-24.34 45.97-24.34L45.97-24.34Q47.7-24.37 48.98-23.84 50.27-23.32 51.12-22.31L51.12-22.31Q51.93-21.36 52.32-19.98 52.71-18.6 52.73-16.89L52.73-16.89 52.73 0 55.66 0 55.66-16.87Q55.64-19.26 55.05-21.13 54.47-23 53.34-24.29L53.34-24.29Q52.19-25.59 50.52-26.25 48.85-26.9 46.68-26.9L46.68-26.9Q45.02-26.9 43.55-26.42 42.09-25.93 40.89-25.05L40.89-25.05Q39.89-24.34 39.07-23.38 38.25-22.41 37.67-21.26ZM76 0.49L76 0.49Q79.29 0.49 81.78-0.81 84.27-2.1 85.79-4.2L85.79-4.2 83.93-5.62Q82.51-3.86 80.54-2.93 78.56-2 76.12-2L76.12-2Q73.99-2.03 72.26-2.86 70.53-3.69 69.28-5.13L69.28-5.13Q68.06-6.49 67.37-8.3 66.67-10.11 66.57-12.21L66.57-12.21 66.57-13.01 86.35-13.01 86.35-14.79Q86.35-17.31 85.63-19.52 84.91-21.73 83.54-23.39L83.54-23.39Q82.15-25.02 80.11-25.96 78.07-26.9 75.46-26.9L75.46-26.9Q72.97-26.9 70.83-25.88 68.7-24.85 67.11-23.05L67.11-23.05Q65.5-21.24 64.58-18.8 63.67-16.36 63.67-13.53L63.67-13.53 63.67-12.48Q63.67-9.81 64.57-7.46 65.47-5.1 67.11-3.32L67.11-3.32Q68.72-1.56 70.99-0.54 73.26 0.49 76 0.49ZM75.46-24.39L75.46-24.39Q77.34-24.39 78.8-23.67 80.27-22.95 81.29-21.75L81.29-21.75Q82.29-20.56 82.87-18.97 83.44-17.38 83.44-15.8L83.44-15.8 83.44-15.53 66.72-15.53Q66.96-17.43 67.7-19.06 68.43-20.68 69.58-21.88L69.58-21.88Q70.7-23.05 72.19-23.72 73.68-24.39 75.46-24.39ZM112.2-26.9L112.2-26.9Q108.61-26.93 105.96-25.42 103.31-23.9 101.77-21.19L101.77-21.19 101.75-22.36 101.58-26.42 98.8-26.42 98.8 0 101.82 0 101.77-16.92Q102.26-18.73 103.18-20.06 104.09-21.39 105.34-22.27L105.34-22.27Q106.63-23.17 108.26-23.6 109.88-24.02 111.74-24.02L111.74-24.02Q112.81-24.02 113.84-23.9 114.86-23.78 115.86-23.56L115.86-23.56 116.25-26.39Q115.5-26.64 114.38-26.77 113.27-26.9 112.2-26.9ZM124.82-26.42L124.82 10.16 127.72 10.16 127.72-3.2Q128.31-2.42 129.08-1.78 129.85-1.15 130.73-0.71L130.73-0.71Q131.83-0.12 133.08 0.18 134.34 0.49 135.71 0.49L135.71 0.49Q138.37 0.49 140.32-0.63 142.28-1.76 143.54-3.61L143.54-3.61Q144.79-5.47 145.44-7.91 146.08-10.35 146.08-12.94L146.08-12.94 146.08-13.45Q146.06-16.24 145.39-18.77 144.72-21.31 143.32-23.19L143.32-23.19Q142.01-24.93 140.11-25.92 138.22-26.9 135.63-26.9L135.63-26.9Q134.29-26.9 133.05-26.59 131.8-26.27 130.73-25.66L130.73-25.66Q129.82-25.15 129.03-24.41 128.24-23.68 127.65-22.78L127.65-22.78 127.53-26.42 124.82-26.42ZM143.15-13.45L143.15-13.45 143.15-12.94Q143.13-10.91 142.68-8.91 142.23-6.91 141.23-5.35L141.23-5.35Q140.25-3.88 138.72-2.95 137.2-2.03 135.02-2.03L135.02-2.03Q133.8-2.03 132.66-2.34 131.51-2.66 130.56-3.27L130.56-3.27Q129.63-3.83 128.91-4.65 128.19-5.47 127.72-6.49L127.72-6.49 127.72-19.38Q128.19-20.51 128.92-21.42 129.65-22.34 130.61-23L130.61-23Q131.51-23.63 132.62-23.99 133.73-24.34 134.98-24.34L134.98-24.34Q137.1-24.34 138.59-23.49 140.08-22.63 141.08-21.26L141.08-21.26Q142.15-19.65 142.65-17.6 143.15-15.55 143.15-13.45ZM172.89 0L172.89 0 176.01 0 176.01-0.32Q175.67-1.51 175.44-2.87 175.21-4.22 175.18-5.54L175.18-5.54 175.18-18.31Q175.16-20.46 174.38-22.07 173.6-23.68 172.23-24.78L172.23-24.78Q170.86-25.83 169.03-26.37 167.2-26.9 165.1-26.9L165.1-26.9Q163-26.9 161.16-26.32 159.31-25.73 157.92-24.71L157.92-24.71Q156.53-23.66 155.7-22.24 154.87-20.83 154.8-19.14L154.8-19.14 157.73-19.12Q157.78-20.36 158.39-21.35 159-22.34 160-23.02L160-23.02Q160.97-23.71 162.27-24.07 163.56-24.44 164.98-24.44L164.98-24.44Q166.52-24.44 167.85-24.04 169.18-23.63 170.15-22.88L170.15-22.88Q171.13-22.12 171.69-20.98 172.25-19.85 172.28-18.36L172.28-18.36 172.28-15.38 166.54-15.38Q164.07-15.38 161.83-14.93 159.58-14.48 157.9-13.48L157.9-13.48Q156.19-12.48 155.18-10.88 154.16-9.28 154.16-7.01L154.16-7.01Q154.16-5.32 154.85-3.93 155.53-2.54 156.7-1.59L156.7-1.59Q157.87-0.61 159.48-0.06 161.1 0.49 162.93 0.49L162.93 0.49Q164.39 0.49 165.75 0.18 167.1-0.12 168.32-0.71L168.32-0.71Q169.52-1.27 170.53-2.09 171.55-2.91 172.3-3.91L172.3-3.91Q172.35-2.88 172.49-1.88 172.62-0.88 172.89 0ZM163.27-2.12L163.27-2.12Q161.97-2.12 160.85-2.49 159.73-2.86 158.9-3.52L158.9-3.52Q158.04-4.17 157.57-5.14 157.09-6.1 157.09-7.28L157.09-7.28Q157.07-8.76 157.73-9.79 158.39-10.82 159.51-11.52L159.51-11.52Q160.88-12.4 162.83-12.74 164.78-13.09 166.96-13.11L166.96-13.11 172.28-13.11 172.28-7.32Q171.72-6.15 170.81-5.19 169.91-4.22 168.74-3.54L168.74-3.54Q167.57-2.86 166.17-2.49 164.78-2.12 163.27-2.12Z" fill="#ffffff" data-fill-palette-color="primary"></path></g></svg></g></svg></g></svg></g></svg></g><g></g></svg></g></svg><rect width="395.52" height="109.97935042735043" fill="none" stroke="none" visibility="hidden"></rect></g></svg></g></svg>